<?xml version="1.0" encoding="utf-8"?>
<!-- Generator: Adobe Illustrator 16.0.0, SVG Export Plug-In . SVG Version: 6.00 Build 0)  -->
<!DOCTYPE svg PUBLIC "-//W3C//DTD SVG 1.1//EN" "http://www.w3.org/Graphics/SVG/1.1/DTD/svg11.dtd">
<svg version="1.1" id="Layer_1" xmlns="http://www.w3.org/2000/svg" xmlns:xlink="http://www.w3.org/1999/xlink" x="0px" y="0px"
	 width="50px" height="50px" viewBox="0 0 50 50" enable-background="new 0 0 50 50" xml:space="preserve">
<g id="_x31_047-credit-cards_x40_2x.png">
	<g>
		<path fill="#FFFFFF" d="M2.71,31.812c-0.864-0.497-1.161-1.597-0.663-2.454L16.452,4.496c0.498-0.858,1.601-1.151,2.465-0.654
			l14.078,8.1c0.273,0.157,0.483,0.378,0.636,0.63l1.553-0.898c-0.308-0.514-0.731-0.967-1.288-1.287l-14.079-8.1
			c-1.728-0.994-3.935-0.409-4.93,1.308L0.482,28.459c-0.995,1.716-0.4,3.913,1.328,4.907l10.377,5.97l-1.787-3.1L2.71,31.812z
			 M24.037,13.003l-1.564-0.9l-6.024,10.402l3.135-1.813L24.037,13.003z M20.909,11.204l-1.565-0.9l-1.8,3.108l1.564,0.899
			L20.909,11.204z M10.103,26.254c0.182-0.14,0.356-0.287,0.561-0.405l2.646-1.529l4.448-7.678l-1.564-0.899L10.103,26.254z
			 M20.135,34.985l0.897,1.561l7.779-4.505l-0.899-1.562L20.135,34.985z M49.518,28.372l-8.084-14.047
			c-0.992-1.724-3.189-2.314-4.908-1.319L11.633,27.423c-1.718,0.996-2.308,3.199-1.314,4.924l8.084,14.047
			c0.992,1.724,3.19,2.314,4.908,1.318l24.892-14.417C49.921,32.3,50.51,30.096,49.518,28.372z M47.305,31.734L22.412,46.152
			c-0.859,0.497-1.958,0.202-2.455-0.66l-8.084-14.047c-0.496-0.861-0.202-1.964,0.658-2.462l24.892-14.417
			c0.859-0.498,1.958-0.202,2.453,0.66l8.085,14.047C48.458,30.135,48.164,31.237,47.305,31.734z M29.469,29.579l0.898,1.561
			l9.334-5.407l-0.897-1.56L29.469,29.579z M31.562,24.205l-13.224,7.659l0.898,1.56l13.224-7.659L31.562,24.205z M37.904,22.611
			l-0.897-1.56l-3.112,1.802l0.899,1.561L37.904,22.611z"/>
	</g>
</g>
</svg>
