<?xml version="1.0" encoding="utf-8"?>
<!-- Generator: Adobe Illustrator 16.0.0, SVG Export Plug-In . SVG Version: 6.00 Build 0)  -->
<!DOCTYPE svg PUBLIC "-//W3C//DTD SVG 1.1//EN" "http://www.w3.org/Graphics/SVG/1.1/DTD/svg11.dtd">
<svg version="1.1" id="Layer_1" xmlns="http://www.w3.org/2000/svg" xmlns:xlink="http://www.w3.org/1999/xlink" x="0px" y="0px"
	 width="50px" height="50px" viewBox="0 0 50 50" enable-background="new 0 0 50 50" xml:space="preserve">
<g id="_x38_81-globe_x40_2x.png">
	<g>
		<path fill="#FFFFFF" d="M30.552,29.945c-1.67-0.857,0.834-0.857-3.339-2.573c-4.173-1.716-6.677,0-6.677,2.573
			c0,5.148,3.339,6.006,3.339,6.006c-0.834,4.29,0,6.006,0.834,6.864c0.835,0.857,1.403,2.135,2.157,1.716
			c0.753-0.419,1.182-6.006,3.686-8.58C33.056,33.378,32.222,30.804,30.552,29.945z M25,0C11.193,0,0,11.193,0,25
			c0,13.807,11.193,25,25,25c13.807,0,25-11.193,25-25C50,11.193,38.807,0,25,0z M25,48.214C12.179,48.214,1.786,37.821,1.786,25
			C1.786,12.179,12.179,1.786,25,1.786c12.821,0,23.214,10.394,23.214,23.214C48.214,37.821,37.821,48.214,25,48.214z M24.107,18.75
			c3.572-1.786,2.679-2.679,4.464-2.679c1.786,0,1.786-3.571-1.785-3.571c-3.572,0-1.786,4.464-4.465,1.786
			C19.643,11.607,23.214,12.5,25,10.714c1.786-1.786-1.786-2.679-2.679-0.893c0,0-2.678-2.678-4.464,1.786
			c0,0-3.553-2.133-4.83-4.38C11.233,8.438,9.642,9.92,8.29,11.604c0.757,0.396,1.586,0.951,2.425,1.79
			c2.679,2.678,0.893,5.357,0,7.143C9.821,22.321,13.393,25,13.393,25s2.678,1.786,5.357,2.679c0,0,1.786-0.893-1.786-2.679
			c0,0-2.679-2.679,0.893-3.571c2.679-0.893,0.893,1.786,2.679,1.786S20.536,20.536,24.107,18.75z M40.908,10.679
			c-2.301-2.555-5.203-4.546-8.49-5.762c-0.062,0.159-0.146,0.311-0.275,0.439c-0.893,0.893-2.679,3.572,0.894,3.572
			c0,0-1.786,5.357,0.893,5.357C36.255,14.286,38.581,9.579,40.908,10.679z M42.512,12.676c0.568,2.386-5.012,2.329-5.012,7.859
			c0,4.496,5.071,8.057,8.256,9.708c0.424-1.681,0.673-3.431,0.673-5.243C46.429,20.408,44.972,16.164,42.512,12.676z"/>
	</g>
</g>
</svg>
