<?xml version="1.0" encoding="utf-8"?>
<!-- Generator: Adobe Illustrator 16.0.0, SVG Export Plug-In . SVG Version: 6.00 Build 0)  -->
<!DOCTYPE svg PUBLIC "-//W3C//DTD SVG 1.1//EN" "http://www.w3.org/Graphics/SVG/1.1/DTD/svg11.dtd">
<svg version="1.1" id="Layer_1" xmlns="http://www.w3.org/2000/svg" xmlns:xlink="http://www.w3.org/1999/xlink" x="0px" y="0px"
	 width="50px" height="50px" viewBox="0 0 50 50" enable-background="new 0 0 50 50" xml:space="preserve">
<g>
	<g id="_x31_030-globe_x40_2x.png">
		<g>
			<path fill="#4EB76C" d="M38.392,36.411c-0.146,0-0.277,0.043-0.399,0.105l-0.012-0.022c-3.03,1.764-6.543,2.79-10.302,2.79
				c-11.341,0-20.535-9.192-20.535-20.534c0-7.14,3.648-13.423,9.178-17.103l-0.008-0.01c0.251-0.159,0.427-0.425,0.427-0.745
				c0-0.494-0.4-0.895-0.895-0.895c-0.214,0-0.402,0.085-0.556,0.21L15.28,0.193C9.299,4.197,5.358,11.012,5.358,18.75
				c0,11.725,9.045,21.317,20.534,22.23v7.232H18.75c-0.494,0-0.893,0.398-0.893,0.893c0,0.493,0.399,0.893,0.893,0.893h16.07
				c0.494,0,0.894-0.399,0.894-0.893c0-0.494-0.399-0.893-0.894-0.893h-7.142V41.07c4.015,0,7.769-1.08,11.023-2.937
				c0.339-0.127,0.583-0.447,0.583-0.83C39.285,36.811,38.886,36.411,38.392,36.411z M27.679,1.787
				c-9.369,0-16.963,7.595-16.963,16.963s7.595,16.963,16.963,16.963c9.368,0,16.963-7.595,16.963-16.963S37.047,1.787,27.679,1.787
				z M27.679,33.928c-8.382,0-15.178-6.795-15.178-15.178c0-8.382,6.795-15.177,15.178-15.177c8.382,0,15.177,6.795,15.177,15.177
				C42.855,27.133,36.061,33.928,27.679,33.928z"/>
		</g>
	</g>
	<g id="_x38_81-globe_x40_2x.png">
		<g>
			<path fill="#4EB76C" d="M31.2,22.638c-1.109-0.571,0.555-0.571-2.22-1.711c-2.774-1.141-4.439,0-4.439,1.711
				c0,3.423,2.221,3.993,2.221,3.993c-0.556,2.852,0,3.992,0.555,4.562s0.933,1.419,1.434,1.141s0.786-3.992,2.45-5.703
				C32.865,24.919,32.311,23.208,31.2,22.638z M26.916,15.196c2.374-1.188,1.78-1.781,2.967-1.781c1.188,0,1.188-2.374-1.187-2.374
				c-2.373,0-1.188,2.968-2.968,1.188c-1.781-1.781,0.595-1.188,1.78-2.375c1.188-1.186-1.186-1.78-1.78-0.594
				c0,0-1.781-1.78-2.967,1.188c0,0-2.362-1.417-3.211-2.912c-1.192,0.805-2.25,1.791-3.15,2.91
				c0.503,0.263,1.055,0.632,1.612,1.189c1.781,1.78,0.594,3.562,0,4.748c-0.594,1.188,1.781,2.968,1.781,2.968
				s1.78,1.188,3.561,1.781c0,0,1.186-0.594-1.188-1.781c0,0-1.78-1.78,0.594-2.374c1.78-0.594,0.594,1.188,1.78,1.188
				C25.729,18.164,24.541,16.382,26.916,15.196z M39.15,11.157c0.379,1.587-3.331,1.549-3.331,5.225
				c0,2.989,3.371,5.355,5.487,6.454c0.282-1.117,0.448-2.28,0.448-3.486C41.755,16.298,40.786,13.476,39.15,11.157z M38.085,9.83
				c-1.53-1.698-3.459-3.022-5.644-3.83c-0.042,0.105-0.098,0.206-0.184,0.293c-0.594,0.593-1.781,2.374,0.594,2.374
				c0,0-1.188,3.561,0.593,3.561C34.991,12.228,36.538,9.099,38.085,9.83z"/>
		</g>
	</g>
</g>
</svg>
