<?xml version="1.0" encoding="utf-8"?>
<!-- Generator: Adobe Illustrator 16.0.0, SVG Export Plug-In . SVG Version: 6.00 Build 0)  -->
<!DOCTYPE svg PUBLIC "-//W3C//DTD SVG 1.1//EN" "http://www.w3.org/Graphics/SVG/1.1/DTD/svg11.dtd">
<svg version="1.1" id="Layer_1" xmlns="http://www.w3.org/2000/svg" xmlns:xlink="http://www.w3.org/1999/xlink" x="0px" y="0px"
	 width="50px" height="50px" viewBox="0 0 50 50" enable-background="new 0 0 50 50" xml:space="preserve">
<g id="_x39_82-food_x40_2x.png">
	<g>
		<path fill="#4EB76C" d="M50,34.821c0-4.464-4.464-4.464-4.464-4.464H27.679c-4.464,0-4.464,4.464-4.464,4.464
			c0,0.134,0.034,0.258,0.086,0.372c-0.051,0.166-0.086,0.339-0.086,0.521v3.572c0,0.183,0.036,0.355,0.086,0.521
			c-0.053,0.114-0.086,0.238-0.086,0.372c0,0,0,4.464,4.464,4.464h17.857c0,0,4.464,0,4.464-4.464c0-0.134-0.034-0.258-0.086-0.372
			C49.964,39.642,50,39.469,50,39.286v-3.572c0-0.182-0.036-0.354-0.086-0.521C49.966,35.079,50,34.955,50,34.821z M26.953,32.143
			h19.308c1.786,0,1.786,1.786,1.786,1.786H25.167C25.167,33.929,25.167,32.143,26.953,32.143z M46.261,42.857H26.953
			c-1.786,0-1.786-1.786-1.786-1.786h22.879C48.047,41.071,48.047,42.857,46.261,42.857z M48.214,39.286H25v-3.572h23.214V39.286z
			 M23.214,13.394c0-0.493-0.399-0.894-0.893-0.894h-7.546l1.128-5.356h9.99c0.494,0,0.893-0.399,0.893-0.894
			c0-0.493-0.399-0.893-0.893-0.893H15.179c-0.429,0-0.771,0.309-0.856,0.712l-0.018-0.003L12.951,12.5H0.893
			C0.399,12.5,0,12.9,0,13.394c0,0.035,0.017,0.064,0.02,0.099l-0.014,0.002l3.572,30.357l0.014-0.002
			c0.052,0.444,0.415,0.793,0.873,0.793H18.75c0.458,0,0.821-0.349,0.873-0.793l0.014,0.002l3.571-30.357l-0.014-0.002
			C23.199,13.458,23.214,13.429,23.214,13.394z M1.897,14.286h10.677l-1.734,8.241c-3.07-1.161-5.874-1.253-8.087-0.965
			L1.897,14.286z M17.956,42.857H5.259l-2.297-19.52c2.058-0.272,4.674-0.181,7.505,0.955L7.162,39.994l0.018,0.004
			c-0.013,0.061-0.037,0.117-0.037,0.181c0,0.493,0.399,0.893,0.893,0.893c0.429,0,0.771-0.309,0.856-0.712l0.017,0.003
			l3.244-15.405c2.164,0.736,4.914,1.066,7.813,0.815L17.956,42.857z M20.177,23.977c-2.213,0.252-4.974,0.199-7.652-0.789
			l1.874-8.901h6.919L20.177,23.977z"/>
	</g>
</g>
</svg>
