<?xml version="1.0" encoding="utf-8"?>
<!-- Generator: Adobe Illustrator 16.0.0, SVG Export Plug-In . SVG Version: 6.00 Build 0)  -->
<!DOCTYPE svg PUBLIC "-//W3C//DTD SVG 1.1//EN" "http://www.w3.org/Graphics/SVG/1.1/DTD/svg11.dtd">
<svg version="1.1" id="Layer_1" xmlns="http://www.w3.org/2000/svg" xmlns:xlink="http://www.w3.org/1999/xlink" x="0px" y="0px"
	 width="50px" height="50px" viewBox="0 0 50 50" enable-background="new 0 0 50 50" xml:space="preserve">
<g id="_x37_89-map-location_x40_2x.png">
	<g>
		<path fill="#4EB876" d="M32.143,17.857c0-3.944-3.198-7.143-7.143-7.143c-3.945,0-7.143,3.198-7.143,7.143
			C17.857,21.803,21.055,25,25,25C28.944,25,32.143,21.803,32.143,17.857z M19.643,17.857c0-2.958,2.398-5.357,5.357-5.357
			c2.958,0,5.357,2.398,5.357,5.357S27.958,23.214,25,23.214C22.042,23.214,19.643,20.815,19.643,17.857z M39.286,17.857
			c0-7.89-6.396-14.286-14.286-14.286c-7.89,0-14.286,6.396-14.286,14.286C10.714,26.786,25,41.071,25,41.071
			S39.286,26.786,39.286,17.857z M25,5.357c6.904,0,12.5,5.596,12.5,12.5C37.5,25,25,38.393,25,38.393S12.5,25,12.5,17.857
			C12.5,10.953,18.096,5.357,25,5.357z M49.876,45.108l0.012-0.006l-8.929-16.071l-0.012,0.006
			c-0.152-0.273-0.434-0.466-0.769-0.466h-1.786c-0.493,0-0.893,0.4-0.893,0.893c0,0.494,0.399,0.894,0.893,0.894h1.261
			l7.937,14.285H2.41l7.937-14.285h1.26c0.494,0,0.893-0.399,0.893-0.894c0-0.492-0.399-0.893-0.893-0.893H9.821
			c-0.334,0-0.616,0.192-0.769,0.466l-0.011-0.006L0.112,45.103l0.012,0.006C0.052,45.237,0,45.378,0,45.536
			c0,0.493,0.399,0.893,0.893,0.893h48.214c0.493,0,0.893-0.399,0.893-0.893C50,45.378,49.947,45.237,49.876,45.108z"/>
	</g>
</g>
</svg>
