<?xml version="1.0" encoding="utf-8"?>
<!-- Generator: Adobe Illustrator 16.0.0, SVG Export Plug-In . SVG Version: 6.00 Build 0)  -->
<!DOCTYPE svg PUBLIC "-//W3C//DTD SVG 1.1//EN" "http://www.w3.org/Graphics/SVG/1.1/DTD/svg11.dtd">
<svg version="1.1" id="Layer_1" xmlns="http://www.w3.org/2000/svg" xmlns:xlink="http://www.w3.org/1999/xlink" x="0px" y="0px"
	 width="50px" height="50px" viewBox="0 0 50 50" enable-background="new 0 0 50 50" xml:space="preserve">
<g id="_x37_22-location-pin_x40_2x.png">
	<g>
		<path fill="#FFFFFF" d="M25,8.929c-4.438,0-8.035,3.598-8.035,8.036S20.562,25,25,25c4.438,0,8.036-3.598,8.036-8.036
			S29.438,8.929,25,8.929z M25,23.214c-3.452,0-6.25-2.798-6.25-6.25c0-3.452,2.798-6.25,6.25-6.25s6.25,2.798,6.25,6.25
			C31.25,20.416,28.452,23.214,25,23.214z M25,0C15.632,0,8.036,7.595,8.036,16.964C8.036,31.25,25,50,25,50
			s16.964-18.75,16.964-33.036C41.964,7.595,34.369,0,25,0z M9.821,16.964C9.821,8.582,16.617,1.786,25,1.786
			s15.179,6.796,15.179,15.179C40.179,29.464,25,47.321,25,47.321S9.821,29.464,9.821,16.964z"/>
	</g>
</g>
</svg>
