<?xml version="1.0" encoding="utf-8"?>
<!-- Generator: Adobe Illustrator 16.0.0, SVG Export Plug-In . SVG Version: 6.00 Build 0)  -->
<!DOCTYPE svg PUBLIC "-//W3C//DTD SVG 1.1//EN" "http://www.w3.org/Graphics/SVG/1.1/DTD/svg11.dtd">
<svg version="1.1" id="Layer_1" xmlns="http://www.w3.org/2000/svg" xmlns:xlink="http://www.w3.org/1999/xlink" x="0px" y="0px"
	 width="81.436px" height="50.007px" viewBox="0 0 81.436 50.007" enable-background="new 0 0 81.436 50.007" xml:space="preserve">
<g>
	<g id="_x38_52-map_x40_2x.png" opacity="0.3">
		<g>
			<path fill="#FFFFFF" d="M17.518,26.042c0.139,0.062,0.283,0.094,0.426,0.094c0.396,0,0.777-0.229,0.949-0.618
				c0.198-0.442,0.55-0.978,0.987-1.506c0.367-0.441,0.306-1.1-0.139-1.467c-0.441-0.367-1.098-0.308-1.467,0.138
				c-0.561,0.679-1.005,1.364-1.282,1.981C16.757,25.19,16.992,25.808,17.518,26.042z M26.61,26.389
				c0.106,0.033,0.214,0.051,0.319,0.051c0.439,0,0.85-0.279,0.992-0.723l0.038-0.131c0.135-0.483,0.203-0.98,0.203-1.479
				c0-0.321-0.028-0.644-0.085-0.957c-0.104-0.566-0.642-0.938-1.212-0.841c-0.565,0.104-0.941,0.646-0.838,1.214
				c0.034,0.189,0.051,0.385,0.051,0.582c0,0.312-0.043,0.62-0.143,0.973C25.762,25.627,26.062,26.213,26.61,26.389z M26.413,34.025
				c-0.486-0.312-1.131-0.168-1.438,0.32c-0.308,0.481-0.165,1.129,0.32,1.438c0.709,0.451,1.56,0.688,2.527,0.703h0.017
				c0.567,0,1.031-0.457,1.042-1.026c0.008-0.573-0.451-1.048-1.026-1.058C27.278,34.395,26.792,34.268,26.413,34.025z
				 M37.436,28.221c-0.527,0.475-1.049,1.008-1.538,1.516c-0.399,0.414-0.389,1.074,0.027,1.475c0.2,0.195,0.462,0.293,0.724,0.293
				c0.272,0,0.544-0.104,0.75-0.316c0.462-0.479,0.955-0.981,1.432-1.412c0.429-0.385,0.461-1.045,0.078-1.471
				C38.522,27.871,37.865,27.838,37.436,28.221z M24.368,28.873c-0.318,0.812-0.546,1.506-0.691,2.12
				c-0.132,0.562,0.214,1.123,0.773,1.255c0.082,0.02,0.164,0.027,0.243,0.027c0.472,0,0.899-0.32,1.014-0.801
				c0.123-0.52,0.32-1.123,0.603-1.845c0.212-0.534-0.053-1.142-0.589-1.351C25.183,28.075,24.577,28.337,24.368,28.873z
				 M22.315,21.823c0.123,0,0.252-0.022,0.375-0.071l0.097-0.035c0.518-0.172,0.999-0.228,1.419-0.165
				c0.562,0.076,1.1-0.309,1.185-0.876c0.084-0.568-0.308-1.099-0.877-1.186c-0.729-0.107-1.55-0.03-2.399,0.253l-0.175,0.063
				c-0.537,0.208-0.805,0.812-0.597,1.35C21.502,21.572,21.897,21.823,22.315,21.823z M54.022,13.532l3.348,1.117l-1.612,3.621
				c-0.233,0.524,0,1.142,0.526,1.377c0.137,0.062,0.279,0.091,0.422,0.091c0.396,0,0.779-0.229,0.951-0.618l1.692-3.806
				l3.007,1.001c0.106,0.037,0.219,0.054,0.326,0.054c0.438,0,0.846-0.275,0.987-0.712c0.182-0.546-0.112-1.137-0.657-1.319
				L60.2,13.403l1.076-2.41c0.233-0.525-0.002-1.143-0.524-1.377c-0.526-0.237-1.144,0.001-1.375,0.528l-1.158,2.596l-3.541-1.182
				c-0.547-0.185-1.136,0.114-1.315,0.659C53.182,12.76,53.475,13.353,54.022,13.532z M51.137,4.168h-2.085L32.383,0H30.3
				L11.548,4.168v45.839L30.3,45.839h2.083l16.669,4.168h2.085l18.751-4.168V0L51.137,4.168z M30.3,43.754h-0.229l-0.224,0.053
				L13.632,47.41V5.839l16.669-3.704L30.3,43.754L30.3,43.754z M49.052,30.396c-0.383-0.347-0.766-0.695-1.152-1.029
				c-0.438-0.375-1.096-0.328-1.471,0.105c-0.375,0.438-0.328,1.098,0.107,1.473c0.494,0.428,0.981,0.873,1.537,1.373
				c0.188,0.172,0.426,0.258,0.658,0.258c0.105,0,0.215-0.034,0.316-0.071v15.354l-16.16-4.043l-0.248-0.062h-0.258v-8.479
				c0.359-0.178,0.696-0.361,0.985-0.545c0.297-0.187,0.583-0.383,0.864-0.59c0.46-0.35,0.554-1,0.209-1.461
				c-0.344-0.463-0.997-0.554-1.458-0.212c-0.195,0.146-0.396,0.28-0.602,0.413V2.148l16.165,4.041l0.249,0.062h0.256v24.146H49.052
				z M67.804,44.168l-16.667,3.704V34.846c0.06,0.081,0.121,0.165,0.208,0.229c0.655,0.478,1.271,0.866,1.885,1.19
				c0.156,0.08,0.32,0.118,0.487,0.118c0.374,0,0.733-0.2,0.92-0.555c0.271-0.515,0.073-1.144-0.435-1.41
				c-0.524-0.276-1.062-0.614-1.631-1.033c-0.457-0.329-1.097-0.231-1.438,0.212V6.252h0.229l0.225-0.05l16.215-3.604L67.804,44.168
				L67.804,44.168z M62.987,24.565c-0.562,0.125-0.916,0.684-0.791,1.244c0.15,0.667,0.271,1.326,0.348,1.953
				c0.062,0.526,0.516,0.913,1.029,0.913c0.043,0,0.086-0.002,0.129-0.008c0.57-0.071,0.979-0.593,0.906-1.162
				c-0.086-0.694-0.215-1.421-0.379-2.153C64.104,24.789,63.545,24.437,62.987,24.565z M63.721,30.762
				c-0.563-0.101-1.106,0.271-1.21,0.842c-0.117,0.645-0.299,1.217-0.538,1.699c-0.256,0.516-0.047,1.143,0.468,1.397
				c0.149,0.073,0.312,0.106,0.463,0.106c0.383,0,0.752-0.209,0.936-0.574c0.331-0.659,0.57-1.422,0.729-2.262
				C64.661,31.404,64.286,30.859,63.721,30.762z M59.521,35.261c-0.129,0.032-0.265,0.058-0.402,0.075
				c-0.381,0.055-0.762,0.08-1.123,0.08l-0.271-0.005c-0.569-0.028-1.057,0.435-1.075,1.009c-0.019,0.576,0.438,1.059,1.01,1.073
				l0.324,0.01c0.471,0,0.952-0.034,1.435-0.104c0.198-0.025,0.396-0.063,0.586-0.106c0.56-0.133,0.901-0.692,0.771-1.256
				C60.642,35.475,60.081,35.135,59.521,35.261z M44.255,26.812c-0.832-0.383-1.648-0.578-2.436-0.586h-0.012
				c-0.568,0-1.038,0.463-1.044,1.034c-0.004,0.575,0.458,1.046,1.035,1.052c0.497,0.004,1.015,0.135,1.581,0.396
				c0.143,0.063,0.29,0.095,0.438,0.095c0.396,0,0.771-0.225,0.944-0.607C45.007,27.67,44.776,27.052,44.255,26.812z M62.353,22.572
				c0.532-0.219,0.784-0.829,0.562-1.361c-0.287-0.694-0.602-1.36-0.93-1.979c-0.271-0.51-0.9-0.699-1.41-0.43
				c-0.51,0.272-0.7,0.903-0.428,1.411c0.299,0.56,0.578,1.163,0.844,1.794c0.168,0.401,0.557,0.644,0.963,0.644
				C62.087,22.652,62.221,22.626,62.353,22.572z"/>
		</g>
	</g>
	<text transform="matrix(1 0 0 1 0 28.0439)" fill="#FFFFFF" font-family="'Helvetica'" font-size="16.1">GeoQuests</text>
</g>
</svg>
