<?xml version="1.0" encoding="utf-8"?>
<!-- Generator: Adobe Illustrator 16.0.0, SVG Export Plug-In . SVG Version: 6.00 Build 0)  -->
<!DOCTYPE svg PUBLIC "-//W3C//DTD SVG 1.1//EN" "http://www.w3.org/Graphics/SVG/1.1/DTD/svg11.dtd">
<svg version="1.1" id="Layer_1" xmlns="http://www.w3.org/2000/svg" xmlns:xlink="http://www.w3.org/1999/xlink" x="0px" y="0px"
	 width="50px" height="50px" viewBox="0 0 50 50" enable-background="new 0 0 50 50" xml:space="preserve">
<g id="_x39_62-puzzle-piece_x40_2x.png">
	<g>
		<path fill="#50B76C" d="M47.482,22.071l-8.215-6.893c1.398-0.198,3.061-0.529,4.437-2.089c2.698-3.058,2.497-6.041-0.582-8.624
			c-3.081-2.583-6.135-2.333-8.834,0.726c-1.376,1.56-1.464,3.209-1.456,4.589l-8.216-6.892c-0.372-0.312-0.937-0.266-1.262,0.104
			l-7.462,8.457c-0.217,0.245-0.281,0.584-0.166,0.882c0.114,0.298,0.387,0.509,0.712,0.549c0.83,0.101,1.495,0.382,2.093,0.883
			c2.325,1.951,2.454,3.851,0.416,6.161c-2.037,2.309-3.983,2.468-6.309,0.518c-0.598-0.501-0.98-1.101-1.208-1.886
			c-0.088-0.307-0.343-0.54-0.662-0.605c-0.32-0.065-0.655,0.047-0.871,0.292l-7.462,8.458c-0.326,0.367-0.288,0.92,0.083,1.23
			l8.218,6.895c-1.399,0.2-3.061,0.529-4.437,2.089c-2.699,3.059-2.498,6.04,0.583,8.624c3.081,2.585,6.134,2.334,8.833-0.725
			c1.375-1.56,1.463-3.211,1.456-4.59l8.213,6.89c0.371,0.312,0.936,0.266,1.261-0.104l7.912-8.964
			c0.229-0.261,0.285-0.625,0.144-0.935c-0.142-0.308-0.456-0.506-0.805-0.505c-1.187,0.005-2.17-0.151-3.1-0.933
			c-2.325-1.95-2.454-3.85-0.416-6.159c2.038-2.309,3.983-2.469,6.31-0.519c0.929,0.781,1.234,1.705,1.408,2.851
			c0.05,0.336,0.297,0.609,0.632,0.699c0.334,0.09,0.695-0.018,0.926-0.278l7.91-8.964C47.892,22.933,47.854,22.382,47.482,22.071z
			 M39.442,29.855c-0.293-0.76-0.766-1.518-1.574-2.195c-3.08-2.583-6.135-2.333-8.832,0.725c-2.7,3.059-2.498,6.041,0.582,8.625
			c0.808,0.677,1.646,1.02,2.461,1.19l-6.188,7.014l-8.971-7.526c-0.247-0.207-0.595-0.264-0.902-0.145
			c-0.309,0.119-0.528,0.393-0.572,0.711c-0.077,0.561-0.071,1.133-0.065,1.687c0.015,1.319,0.029,2.565-1.01,3.743
			c-2.038,2.31-3.984,2.469-6.309,0.519c-2.326-1.952-2.454-3.852-0.417-6.16c1.039-1.177,2.305-1.351,3.646-1.533
			c0.562-0.076,1.144-0.155,1.7-0.313c0.317-0.091,0.562-0.343,0.637-0.658c0.074-0.314-0.034-0.641-0.282-0.849L4.37,27.159
			l5.933-6.724c0.305,0.503,0.688,0.948,1.157,1.341c3.081,2.583,6.134,2.333,8.833-0.726c2.699-3.058,2.497-6.04-0.583-8.624
			c-0.469-0.394-0.977-0.697-1.532-0.915l5.934-6.724l8.973,7.527c0.247,0.208,0.595,0.263,0.902,0.145
			c0.309-0.119,0.528-0.392,0.572-0.711c0.077-0.56,0.071-1.133,0.064-1.686c-0.015-1.32-0.027-2.567,1.01-3.743
			c2.038-2.31,3.984-2.47,6.31-0.519c2.326,1.951,2.454,3.851,0.417,6.16c-1.039,1.177-2.306,1.349-3.646,1.533
			c-0.562,0.076-1.145,0.156-1.701,0.313c-0.316,0.091-0.562,0.344-0.636,0.658c-0.074,0.316,0.034,0.643,0.281,0.85l8.974,7.527
			L39.442,29.855z"/>
	</g>
</g>
</svg>
