<?xml version="1.0" encoding="utf-8"?>
<!-- Generator: Adobe Illustrator 16.0.0, SVG Export Plug-In . SVG Version: 6.00 Build 0)  -->
<!DOCTYPE svg PUBLIC "-//W3C//DTD SVG 1.1//EN" "http://www.w3.org/Graphics/SVG/1.1/DTD/svg11.dtd">
<svg version="1.1" id="Layer_1" xmlns="http://www.w3.org/2000/svg" xmlns:xlink="http://www.w3.org/1999/xlink" x="0px" y="0px"
	 width="50px" height="50px" viewBox="5 0 50 50" enable-background="new 5 0 50 50" xml:space="preserve">
<g id="_x31_069-basketball-shirt_x40_2x.png">
	<g>
		<path fill="#4EB86D" d="M30,8.042c4.887,0,6.909-2.951,6.993-3.076c0.273-0.411,0.162-0.964-0.248-1.238s-0.964-0.162-1.238,0.248
			C35.491,3.998,33.941,6.256,30,6.256c-3.88,0-5.441-2.186-5.511-2.286c-0.274-0.405-0.825-0.513-1.234-0.242
			c-0.41,0.274-0.521,0.828-0.248,1.238C23.091,5.091,25.113,8.042,30,8.042z M47.857,23.87c0-1.457-1.337-2.796-3.571-3.878V0.893
			C44.286,0.399,43.887,0,43.393,0h-3.571c-0.493,0-0.893,0.399-0.893,0.893h-0.021c0.007,0.149,0.021,0.295,0.021,0.446
			c0,5.177-3.998,9.375-8.929,9.375s-8.929-4.198-8.929-9.375c0-0.151,0.015-0.297,0.021-0.446h-0.021
			C21.071,0.399,20.672,0,20.179,0h-3.572c-0.493,0-0.893,0.399-0.893,0.893v19.098c-2.235,1.082-3.571,2.422-3.571,3.879
			c0,0.08,0.025,0.158,0.033,0.237h-0.033V43.75C12.143,47.202,20.138,50,30,50s17.857-2.798,17.857-6.25V24.107h-0.033
			C47.832,24.028,47.857,23.95,47.857,23.87z M46.071,24.107V43.75c0,2.466-7.195,4.464-16.071,4.464
			c-8.877,0-16.071-1.998-16.071-4.464V24.107h0.015c-0.002-0.028-0.015-0.056-0.015-0.083c0-0.982,1.109-1.888,2.979-2.631
			l-0.002-0.024c0.345-0.124,0.595-0.445,0.595-0.833V1.786h1.808C19.534,7.741,24.227,12.5,30,12.5
			c5.772,0,10.466-4.759,10.692-10.714H42.5v18.75c0,0.363,0.218,0.67,0.527,0.811l-0.002,0.02c1.909,0.748,3.046,1.664,3.046,2.657
			c0,0.028-0.013,0.056-0.015,0.083H46.071z M35.252,28.613c-0.615-0.649-1.359-1.158-2.235-1.523
			c-0.875-0.365-1.856-0.548-2.944-0.548c-0.846,0-1.672,0.172-2.477,0.518c-0.806,0.345-1.47,0.833-1.993,1.463l-0.061-0.061
			l1.359-7.071h9.241v-1.768h-10.57l-2.054,11.062h1.631c0.523-0.812,1.198-1.437,2.023-1.873c0.825-0.438,1.722-0.656,2.688-0.656
			c0.786,0,1.511,0.144,2.175,0.428s1.232,0.676,1.706,1.173s0.846,1.082,1.118,1.752c0.271,0.671,0.407,1.402,0.407,2.194
			c0,0.772-0.12,1.509-0.362,2.209c-0.241,0.701-0.595,1.321-1.058,1.859s-1.017,0.965-1.661,1.279
			c-0.644,0.316-1.378,0.473-2.204,0.473c-0.725,0-1.399-0.116-2.023-0.351c-0.625-0.232-1.168-0.568-1.631-1.005
			s-0.83-0.96-1.103-1.569c-0.271-0.609-0.418-1.28-0.438-2.012h-1.902c0.02,1.016,0.211,1.931,0.574,2.743
			c0.361,0.812,0.85,1.498,1.464,2.057s1.339,0.985,2.174,1.28c0.836,0.294,1.747,0.441,2.734,0.441
			c1.006,0,1.957-0.179,2.854-0.533c0.896-0.354,1.676-0.854,2.341-1.493c0.664-0.641,1.188-1.402,1.57-2.286
			s0.573-1.844,0.573-2.88c0-1.076-0.166-2.067-0.498-2.971C36.339,30.041,35.865,29.265,35.252,28.613z"/>
	</g>
</g>
</svg>
