<?xml version="1.0" encoding="utf-8"?>
<!-- Generator: Adobe Illustrator 16.0.0, SVG Export Plug-In . SVG Version: 6.00 Build 0)  -->
<!DOCTYPE svg PUBLIC "-//W3C//DTD SVG 1.1//EN" "http://www.w3.org/Graphics/SVG/1.1/DTD/svg11.dtd">
<svg version="1.1" id="Layer_1" xmlns="http://www.w3.org/2000/svg" xmlns:xlink="http://www.w3.org/1999/xlink" x="0px" y="0px"
	 width="58px" height="50px" viewBox="0 0 58 50" enable-background="new 0 0 58 50" xml:space="preserve">
<g id="_x39_43-running-man_x40_2x.png">
	<g>
		<path fill="#FFFFFF" d="M57.106,23.214h-8.035V11.89c0.812,0.386,1.719,0.609,2.679,0.609c3.452,0,6.25-2.798,6.25-6.25
			S55.202,0,51.75,0S45.5,2.797,45.5,6.25c0,1.754,0.729,3.331,1.895,4.464H33.893c-0.247,0-0.47,0.1-0.632,0.262l-8.928,8.928
			c-0.162,0.162-0.262,0.385-0.262,0.631c0,0.494,0.399,0.893,0.893,0.893c0.247,0,0.471-0.101,0.631-0.262l8.668-8.667h11.995
			L34.946,28.951l0.014,0.01c-0.102,0.145-0.174,0.312-0.174,0.502v9.822H23.179c-0.494,0-0.893,0.4-0.893,0.893
			c0,0.494,0.399,0.893,0.893,0.893h13.393v-9.748l7.143,5.713v12.072c0,0.492,0.399,0.893,0.893,0.893
			c0.494,0,0.894-0.4,0.894-0.893v-12.5c0-0.283-0.14-0.523-0.344-0.688l0.009-0.012l-8.281-6.623l10.401-15.128v9.949
			c0,0.494,0.399,0.893,0.894,0.893h8.928C57.601,25,58,24.6,58,24.106C58,23.613,57.601,23.214,57.106,23.214z M47.285,6.25
			c0-2.466,1.999-4.464,4.465-4.464s4.464,1.999,4.464,4.464s-1.998,4.464-4.464,4.464S47.285,8.715,47.285,6.25z"/>
	</g>
</g>
<g id="_x39_43-running-man_x40_2x.png_2_" opacity="0.5">
	<g>
		<path fill="#FFFFFF" d="M34.82,23.214h-8.035V11.89c0.812,0.386,1.719,0.609,2.679,0.609c3.451,0,6.25-2.798,6.25-6.25
			S32.916,0,29.465,0c-3.453,0-6.25,2.798-6.25,6.25c0,1.754,0.729,3.331,1.895,4.464H11.607c-0.247,0-0.47,0.1-0.632,0.262
			l-8.928,8.928c-0.162,0.162-0.262,0.385-0.262,0.631c0,0.494,0.399,0.893,0.893,0.893c0.247,0,0.471-0.101,0.631-0.262
			l8.668-8.667h11.995L12.661,28.951l0.014,0.01c-0.102,0.145-0.174,0.312-0.174,0.502v9.822H0.893c-0.494,0-0.893,0.4-0.893,0.893
			c0,0.494,0.399,0.893,0.893,0.893h13.393v-9.748l7.143,5.713v12.072c0,0.492,0.399,0.893,0.893,0.893
			c0.494,0,0.894-0.4,0.894-0.893v-12.5c0-0.283-0.14-0.523-0.344-0.688l0.009-0.012l-8.281-6.623L25,14.157v9.949
			C25,24.6,25.399,25,25.893,25h8.927c0.494,0,0.895-0.399,0.895-0.893C35.715,23.613,35.314,23.214,34.82,23.214z M25,6.25
			c0-2.466,1.999-4.464,4.465-4.464c2.465,0,4.463,1.999,4.463,4.464s-1.998,4.464-4.463,4.464C26.999,10.714,25,8.715,25,6.25z"/>
	</g>
</g>
</svg>
