<?xml version="1.0" encoding="utf-8"?>
<!-- Generator: Adobe Illustrator 16.0.0, SVG Export Plug-In . SVG Version: 6.00 Build 0)  -->
<!DOCTYPE svg PUBLIC "-//W3C//DTD SVG 1.1//EN" "http://www.w3.org/Graphics/SVG/1.1/DTD/svg11.dtd">
<svg version="1.1" id="Layer_1" xmlns="http://www.w3.org/2000/svg" xmlns:xlink="http://www.w3.org/1999/xlink" x="0px" y="0px"
	 width="50px" height="50px" viewBox="0 0 50 50" enable-background="new 0 0 50 50" xml:space="preserve">
<g id="_x38_42-chat-bubbles_x40_2x.png">
	<g>
		<path fill="#FFFFFF" d="M50,26.781c0-6.902-6.396-12.498-14.286-12.498c-0.846,0-1.67,0.077-2.476,0.2
			C31.177,8.178,24.677,3.569,16.964,3.569C7.595,3.569,0,10.365,0,18.748c0,3.736,1.516,7.153,4.019,9.797
			c-1.141,6.281,0.233,12.5,0.233,12.5c2.377-4.667,5.249-6.83,7.732-7.787c1.575,0.433,3.247,0.668,4.98,0.668
			c2.215,0,4.323-0.391,6.262-1.081c2.439,3.836,7.115,6.434,12.487,6.434c1.061,0,2.09-0.107,3.084-0.3
			c2.291,1.095,4.819,3.263,6.95,7.452c0,0,1.188-5.371,0.441-11.173C48.547,33.029,50,30.058,50,26.781z M16.964,32.141
			c-1.712,0-3.354-0.262-4.89-0.725c-2.166,0.627-4.632,2.002-6.628,4.92c0,0-0.498-4.034,0.53-8.366
			c-2.591-2.402-4.19-5.645-4.19-9.222c0-7.397,6.796-13.394,15.179-13.394c6.843,0,12.624,3.996,14.518,9.487
			c-5.823,1.578-10.054,6.326-10.054,11.939c0,1.575,0.347,3.076,0.956,4.464C20.699,31.815,18.876,32.141,16.964,32.141z
			 M44.28,34.567c0.684,3.843,0.273,7.15,0.273,7.15c-1.701-2.488-3.742-3.852-5.649-4.591c-1.02,0.23-2.085,0.365-3.19,0.365
			c-6.903,0-12.5-4.796-12.5-10.711c0-5.916,5.596-10.711,12.5-10.711c6.904,0,12.5,4.795,12.5,10.711
			C48.214,29.854,46.697,32.614,44.28,34.567z"/>
	</g>
</g>
</svg>
