<?xml version="1.0" encoding="utf-8"?>
<!-- Generator: Adobe Illustrator 16.0.0, SVG Export Plug-In . SVG Version: 6.00 Build 0)  -->
<!DOCTYPE svg PUBLIC "-//W3C//DTD SVG 1.1//EN" "http://www.w3.org/Graphics/SVG/1.1/DTD/svg11.dtd">
<svg version="1.1" id="Layer_1" xmlns="http://www.w3.org/2000/svg" xmlns:xlink="http://www.w3.org/1999/xlink" x="0px" y="0px"
	 width="50px" height="50px" viewBox="0 0 50 50" enable-background="new 0 0 50 50" xml:space="preserve">
<g id="_x38_52-map_x40_2x.png">
	<g>
		<path fill="#4EB86D" d="M5.116,25.891c0.119,0.053,0.243,0.08,0.365,0.08c0.34,0,0.666-0.197,0.814-0.529
			c0.17-0.379,0.471-0.838,0.846-1.291c0.314-0.379,0.262-0.943-0.119-1.257c-0.378-0.315-0.941-0.264-1.257,0.118
			c-0.481,0.582-0.861,1.169-1.099,1.698C4.464,25.161,4.666,25.689,5.116,25.891z M12.908,26.188
			c0.091,0.028,0.184,0.043,0.274,0.043c0.377,0,0.728-0.24,0.85-0.619l0.033-0.112c0.115-0.414,0.174-0.841,0.174-1.269
			c0-0.275-0.024-0.551-0.073-0.82c-0.089-0.485-0.55-0.804-1.038-0.72c-0.485,0.089-0.807,0.554-0.719,1.04
			c0.03,0.163,0.044,0.33,0.044,0.499c0,0.267-0.037,0.532-0.122,0.834C12.182,25.534,12.439,26.037,12.908,26.188z M12.74,32.732
			c-0.417-0.266-0.969-0.143-1.232,0.274c-0.265,0.416-0.142,0.968,0.274,1.232c0.607,0.388,1.336,0.59,2.166,0.603h0.014
			c0.486,0,0.884-0.391,0.893-0.879c0.007-0.492-0.386-0.898-0.879-0.906C13.481,33.049,13.065,32.939,12.74,32.732z M22.187,27.758
			c-0.452,0.406-0.899,0.863-1.318,1.297c-0.342,0.355-0.333,0.922,0.023,1.264c0.172,0.168,0.396,0.252,0.62,0.252
			c0.234,0,0.467-0.09,0.643-0.271c0.396-0.41,0.818-0.843,1.227-1.21c0.367-0.331,0.396-0.896,0.067-1.262
			C23.118,27.458,22.555,27.43,22.187,27.758z M10.988,28.316c-0.273,0.697-0.468,1.291-0.593,1.818
			c-0.113,0.479,0.183,0.963,0.663,1.075c0.07,0.017,0.14,0.024,0.208,0.024c0.405,0,0.771-0.276,0.869-0.688
			c0.105-0.443,0.274-0.962,0.516-1.58c0.182-0.458-0.045-0.978-0.504-1.156C11.686,27.633,11.167,27.857,10.988,28.316z
			 M9.227,22.275c0.106,0,0.216-0.019,0.322-0.061l0.083-0.03c0.443-0.148,0.856-0.195,1.216-0.141
			c0.481,0.065,0.942-0.264,1.015-0.751c0.072-0.488-0.264-0.942-0.752-1.016c-0.625-0.092-1.328-0.026-2.056,0.217l-0.15,0.055
			c-0.46,0.178-0.689,0.695-0.511,1.156C8.531,22.059,8.869,22.275,9.227,22.275z M36.402,15.169l2.869,0.957l-1.383,3.103
			c-0.201,0.45,0,0.979,0.451,1.18c0.117,0.053,0.24,0.078,0.362,0.078c0.342,0,0.668-0.197,0.815-0.53l1.453-3.261l2.573,0.858
			c0.095,0.032,0.188,0.046,0.282,0.046c0.373,0,0.723-0.236,0.847-0.611c0.156-0.468-0.097-0.974-0.563-1.13l-2.407-0.802
			l0.921-2.065c0.202-0.45-0.001-0.979-0.451-1.18c-0.451-0.203-0.979,0.001-1.179,0.452l-0.992,2.225l-3.035-1.012
			c-0.469-0.158-0.974,0.097-1.129,0.565C35.682,14.507,35.934,15.014,36.402,15.169z M33.93,7.143h-1.787L17.857,3.571h-1.786
			L0,7.143V46.43l16.071-3.572h1.786l14.286,3.572h1.787L50,42.857V3.571L33.93,7.143z M16.071,41.07h-0.196l-0.191,0.044
			L1.786,44.202V8.575l14.286-3.174L16.071,41.07L16.071,41.07z M32.143,29.621c-0.328-0.296-0.656-0.596-0.988-0.882
			c-0.375-0.322-0.938-0.281-1.26,0.092c-0.322,0.374-0.281,0.938,0.092,1.26c0.425,0.367,0.845,0.748,1.318,1.177
			c0.163,0.148,0.364,0.222,0.563,0.222c0.094,0,0.184-0.03,0.274-0.062v13.16L18.29,41.125l-0.213-0.055h-0.22v-7.266
			c0.307-0.152,0.596-0.312,0.844-0.467c0.254-0.158,0.5-0.328,0.741-0.507c0.394-0.297,0.474-0.856,0.179-1.252
			s-0.855-0.474-1.25-0.181c-0.167,0.125-0.34,0.24-0.515,0.354V5.412L31.71,8.875l0.213,0.053h0.22V29.621z M48.214,41.425
			L33.93,44.6V33.436c0.051,0.07,0.104,0.142,0.178,0.195c0.562,0.408,1.09,0.743,1.615,1.021c0.135,0.068,0.275,0.103,0.418,0.103
			c0.32,0,0.629-0.173,0.789-0.476c0.23-0.438,0.062-0.979-0.373-1.209c-0.449-0.237-0.906-0.526-1.397-0.885
			c-0.392-0.283-0.937-0.201-1.229,0.181V8.929h0.196l0.19-0.043l13.897-3.088V41.425z M44.085,24.624
			c-0.481,0.108-0.785,0.586-0.677,1.067c0.129,0.572,0.228,1.137,0.295,1.674c0.056,0.451,0.441,0.783,0.884,0.783
			c0.038,0,0.075-0.002,0.111-0.008c0.489-0.061,0.838-0.507,0.776-0.996c-0.074-0.596-0.184-1.217-0.324-1.845
			C45.042,24.817,44.564,24.514,44.085,24.624z M44.715,29.936c-0.484-0.086-0.949,0.233-1.037,0.721
			c-0.101,0.552-0.256,1.043-0.461,1.457c-0.22,0.441-0.041,0.979,0.4,1.199c0.128,0.062,0.264,0.092,0.396,0.092
			c0.328,0,0.645-0.18,0.799-0.493c0.283-0.565,0.492-1.218,0.621-1.938C45.521,30.488,45.2,30.021,44.715,29.936z M41.115,33.791
			c-0.111,0.027-0.227,0.048-0.346,0.064c-0.326,0.047-0.652,0.069-0.963,0.069l-0.231-0.004c-0.488-0.024-0.905,0.372-0.921,0.864
			c-0.016,0.494,0.371,0.906,0.865,0.921l0.278,0.007c0.403,0,0.815-0.029,1.226-0.089c0.174-0.024,0.341-0.058,0.502-0.095
			c0.479-0.113,0.776-0.596,0.664-1.075C42.076,33.975,41.596,33.684,41.115,33.791z M28.031,26.55
			c-0.713-0.327-1.413-0.495-2.088-0.502h-0.006c-0.491,0-0.891,0.396-0.895,0.888s0.392,0.896,0.887,0.9
			c0.426,0.003,0.867,0.114,1.355,0.338c0.119,0.055,0.248,0.081,0.371,0.081c0.339,0,0.662-0.192,0.812-0.521
			C28.676,27.286,28.479,26.756,28.031,26.55z M43.542,22.917c0.456-0.188,0.672-0.711,0.481-1.167
			c-0.246-0.595-0.515-1.166-0.797-1.696c-0.233-0.436-0.772-0.599-1.209-0.367c-0.436,0.233-0.6,0.774-0.365,1.209
			c0.255,0.479,0.498,0.997,0.723,1.537c0.143,0.344,0.477,0.552,0.826,0.552C43.314,22.985,43.43,22.963,43.542,22.917z"/>
	</g>
</g>
</svg>
