<?xml version="1.0" encoding="utf-8"?>
<!-- Generator: Adobe Illustrator 16.0.0, SVG Export Plug-In . SVG Version: 6.00 Build 0)  -->
<!DOCTYPE svg PUBLIC "-//W3C//DTD SVG 1.1//EN" "http://www.w3.org/Graphics/SVG/1.1/DTD/svg11.dtd">
<svg version="1.1" id="Layer_1" xmlns:sketch="http://www.bohemiancoding.com/sketch/ns"
	 xmlns="http://www.w3.org/2000/svg" xmlns:xlink="http://www.w3.org/1999/xlink" x="0px" y="0px" width="50px" height="50px"
	 viewBox="6 -2.417 50 50" enable-background="new 6 -2.417 50 50" xml:space="preserve">
<title>treasure-chest</title>
<description>Created with &quot;Sketch Internal&quot;.</description>
<g id="Page-1" sketch:type="MSPage">
	<path id="treasure-chest" sketch:type="MSShapeGroup" fill="#FFFFFF" d="M30.107,22.336v3.818h1.785v-3.818
		c0.531-0.311,0.893-0.881,0.893-1.539c0-0.987-0.799-1.786-1.785-1.786s-1.785,0.799-1.785,1.786
		C29.215,21.455,29.574,22.025,30.107,22.336L30.107,22.336z M10.464,22.582c-0.494,0-0.894,0.399-0.894,0.893
		c0,0.494,0.399,0.895,0.894,0.895c0.493,0,0.893-0.4,0.893-0.895C11.357,22.981,10.958,22.582,10.464,22.582L10.464,22.582z
		 M51.535,24.369c0.494,0,0.893-0.4,0.893-0.895c0-0.493-0.398-0.893-0.893-0.893s-0.893,0.399-0.893,0.893
		C50.643,23.969,51.041,24.369,51.535,24.369L51.535,24.369z M10.464,15.439c-0.494,0-0.894,0.399-0.894,0.893
		s0.399,0.893,0.894,0.893c0.493,0,0.893-0.399,0.893-0.893S10.958,15.439,10.464,15.439L10.464,15.439z M47.07,4.726H14.928
		C9.999,4.726,6,8.724,6,13.654v0.893L7.786,40.44h46.427L56,14.547v-0.893C56,8.724,52.002,4.726,47.07,4.726L47.07,4.726z
		 M52.428,38.653H9.571L8.143,20.797h15.714v1.785c0,3.945,3.198,7.143,7.143,7.143c3.943,0,7.143-3.197,7.143-7.143v-1.785h15.713
		L52.428,38.653L52.428,38.653z M25.643,22.582v-5.356h10.714v5.356c0,2.959-2.398,5.357-5.357,5.357
		C28.042,27.939,25.643,25.541,25.643,22.582L25.643,22.582z M54.213,14.547v1.786L54,19.011H38.143v-3.572H23.857v3.572H8
		l-0.215-2.679v-2.679c0-3.944,3.198-7.143,7.143-7.143H47.07c3.945,0,7.143,3.198,7.143,7.143V14.547L54.213,14.547z
		 M50.643,16.333c0,0.494,0.398,0.893,0.893,0.893s0.893-0.399,0.893-0.893s-0.398-0.893-0.893-0.893S50.643,15.838,50.643,16.333
		L50.643,16.333z"/>
</g>
</svg>
