<?xml version="1.0" encoding="utf-8"?>
<!-- Generator: Adobe Illustrator 16.0.0, SVG Export Plug-In . SVG Version: 6.00 Build 0)  -->
<!DOCTYPE svg PUBLIC "-//W3C//DTD SVG 1.1//EN" "http://www.w3.org/Graphics/SVG/1.1/DTD/svg11.dtd">
<svg version="1.1" id="Layer_1" xmlns="http://www.w3.org/2000/svg" xmlns:xlink="http://www.w3.org/1999/xlink" x="0px" y="0px"
	 width="50px" height="50px" viewBox="0 0 50 50" enable-background="new 0 0 50 50" xml:space="preserve">
<g id="_x37_04-compose_x40_2x.png">
	<g>
		<path fill="#FFFFFF" d="M40.166,19.663c-0.493,0-0.893,0.4-0.893,0.892v27.661H1.798V10.74h27.661
			c0.493,0,0.892-0.399,0.892-0.892c0-0.493-0.398-0.893-0.892-0.893H1.798c-0.985,0-1.785,0.799-1.785,1.785v37.476
			C0.014,49.201,0.813,50,1.798,50h37.475c0.985,0,1.785-0.799,1.785-1.784V20.555C41.059,20.063,40.659,19.663,40.166,19.663z
			 M49.458,3.079l-2.549-2.551c-0.703-0.704-1.845-0.704-2.549,0L18.236,26.674l-1.274,6.378l6.372-1.275L46.909,8.181l-1.274-1.275
			L22.484,30.075l-2.336-0.212l-0.213-2.339L43.087,4.355l-1.274-1.276l1.274-1.275l5.098,5.103l1.273-1.275
			C50.162,4.926,50.162,3.784,49.458,3.079z"/>
	</g>
</g>
</svg>
