<?xml version="1.0" encoding="utf-8"?>
<!-- Generator: Adobe Illustrator 16.0.0, SVG Export Plug-In . SVG Version: 6.00 Build 0)  -->
<!DOCTYPE svg PUBLIC "-//W3C//DTD SVG 1.1//EN" "http://www.w3.org/Graphics/SVG/1.1/DTD/svg11.dtd">
<svg version="1.1" id="Layer_1" xmlns="http://www.w3.org/2000/svg" xmlns:xlink="http://www.w3.org/1999/xlink" x="0px" y="0px"
	 width="50px" height="50px" viewBox="0 0 50 50" enable-background="new 0 0 50 50" xml:space="preserve">
<g id="_x38_30-pencil_x40_2x.png">
	<g>
		<path fill="#4EB86D" d="M49.966,48.916l0.013-0.002l-3.57-16.072l-0.018,0.004c-0.038-0.166-0.126-0.309-0.238-0.427l0.015-0.015
			L14.024,0.262C13.863,0.1,13.64,0,13.393,0c-0.246,0-0.47,0.1-0.631,0.262l-12.5,12.5C0.101,12.923,0,13.146,0,13.393
			c0,0.247,0.101,0.47,0.262,0.632l32.143,32.142c0.117,0.118,0.273,0.186,0.441,0.224l-0.004,0.017l16.072,3.572l0.003-0.018
			C48.98,49.976,49.04,50,49.107,50C49.601,50,50,49.601,50,49.107C50,49.04,49.98,48.979,49.966,48.916z M2.155,13.393
			L13.393,2.155l5.435,5.434L7.589,18.827L2.155,13.393z M32.143,38.393v4.987L8.852,20.089L20.089,8.852l23.292,23.291h-4.988
			c-0.493,0-0.893,0.399-0.893,0.894V37.5h-4.465C32.542,37.5,32.143,37.9,32.143,38.393z M33.929,44.819v-5.533h4.464
			c0.494,0,0.893-0.399,0.893-0.894v-4.464h5.533l3.112,14.003L33.929,44.819z"/>
	</g>
</g>
</svg>
